<mxfile host="app.diagrams.net" modified="2023-05-15T15:06:08.641Z" agent="Mozilla/5.0 (Windows NT 10.0; Win64; x64) AppleWebKit/537.36 (KHTML, like Gecko) Chrome/113.0.0.0 Safari/537.36" version="21.3.2" etag="-FBrHPHluIvT4BiWy1kB" type="github">
  <diagram name="Страница 1" id="3U9LPb2eXx21iP6Fo9IC">
    <mxGraphModel>
      <root>
        <mxCell id="0" />
        <mxCell id="1" parent="0" />
      </root>
    </mxGraphModel>
  </diagram>
</mxfile>
